# OBJ generated by ONSHAPE BY PTC INC, 1.216 Units = meters
mtllib m3(1).mtl
g Part 1
v 0.5 0.292218 -0.378224 
v 0.5 -0.00778209 0.0217762 
v 0.5 -0.00778209 -0.378224 
v 0 -0.00778209 0.0217762 
v 0 -0.00778209 -0.378224 
v 0.5 0.292218 0.0217762 
v 0 0.292218 0.0217762 
v 0 0.292218 -0.378224 
vn 1 0 0 
vn 0 -1 0 
vn 0 -5.78241e-17 1 
vn 0 1 0 
vn 0 0 -1 
vn -1 0 0 
vn 1 0 0 
usemtl 0.615686_0.811765_0.929412_0.000000_0.000000
o mesh0
f 1//1 2//1 3//1 
o mesh1
f 2//2 4//2 5//2 
f 5//2 3//2 2//2 
o mesh2
f 6//3 7//3 4//3 
f 4//3 2//3 6//3 
o mesh3
f 1//4 8//4 7//4 
f 7//4 6//4 1//4 
o mesh4
f 3//5 5//5 8//5 
f 8//5 1//5 3//5 
o mesh5
f 7//6 8//6 5//6 
f 5//6 4//6 7//6 
o mesh6
f 1//7 6//7 2//7 
g Part 2
v 1.5 -0.00778209 0.0217762 
v 1.5 -0.00778209 -0.378224 
v 1.5 0.292218 -0.378224 
v 0.5 0.292218 -0.378224 
v 0.5 -0.00778209 0.0217762 
v 0.5 -0.00778209 -0.378224 
vn 1 0 0 
vn 0 0.8 0.6 
vn 0 -1 0 
vn 0 0 -1 
vn -1 0 0 
usemtl 0.647059_0.647059_0.647059_0.000000_0.000000
o mesh7
f 9//8 10//8 11//8 
o mesh8
f 11//9 12//9 13//9 
f 13//9 9//9 11//9 
o mesh9
f 9//10 13//10 14//10 
f 14//10 10//10 9//10 
o mesh10
f 10//11 14//11 12//11 
f 12//11 11//11 10//11 
o mesh11
f 12//12 14//12 13//12 
