# OBJ generated by ONSHAPE BY PTC INC, 1.216 Units = meters
mtllib m3(3).mtl
g Part 1
v 3 -0.5 -0.802579 
v 0 -0.5 -0.802579 
v 0 0.5 -0.802579 
v 3 0.5 -0.802579 
v 0 0.5 0.797421 
v 3 0.5 0.797421 
v 0 -0.5 0.797421 
v 3 -0.5 0.797421 
vn 0 1.11022e-16 -1 
vn 0 1 1.04083e-16 
vn 0 -1.11022e-16 1 
vn 0 -1 -1.38778e-16 
vn 1 0 0 
vn -1 0 0 
usemtl 0.615686_0.811765_0.929412_0.000000_0.000000
o mesh0
f 1//1 2//1 3//1 
f 3//1 4//1 1//1 
o mesh1
f 4//2 3//2 5//2 
f 5//2 6//2 4//2 
o mesh2
f 6//3 5//3 7//3 
f 7//3 8//3 6//3 
o mesh3
f 8//4 7//4 2//4 
f 2//4 1//4 8//4 
o mesh4
f 8//5 1//5 4//5 
f 4//5 6//5 8//5 
o mesh5
f 5//6 3//6 2//6 
f 2//6 7//6 5//6 
g Part 2
v 3 0.5 -0.802579 
v 3 1.1 -0.00257852 
v 3 0.5 0.797421 
v 0 0.5 0.797421 
v 0 0.5 -0.802579 
v 0 1.1 -0.00257852 
vn 1 0 0 
vn 0 -1 -1.04083e-16 
vn 0 0.8 -0.6 
vn 0 0.8 0.6 
vn -1 0 0 
usemtl 0.647059_0.647059_0.647059_0.000000_0.000000
o mesh6
f 9//7 10//7 11//7 
o mesh7
f 11//8 12//8 13//8 
f 13//8 9//8 11//8 
o mesh8
f 9//9 13//9 14//9 
f 14//9 10//9 9//9 
o mesh9
f 10//10 14//10 12//10 
f 12//10 11//10 10//10 
o mesh10
f 12//11 14//11 13//11 
